<svg>
<symbol xmlns="http://www.w3.org/2000/svg" width="64" height="64" fill="none"><g clip-path="url(#a)"><path fill="#2E2F42" d="M62.593 30.602C62.59 13.698 48.883-.003 31.977 0 15.073.003 1.372 13.71 1.375 30.616a30.61 30.61 0 0 0 21.299 29.152c.12.038.247.058.373.057.242 0 .478-.065.685-.187.27-.16.472-.414.567-.713l7.73-24.5a3.826 3.826 0 1 0-1.68-7.27L20.137 16.942a1.275 1.275 0 0 0-1.803 1.804l10.207 10.218a3.752 3.752 0 0 0 1.072 4.618l-7.365 23.346C7.692 51.566.239 35.42 5.601 20.864 10.963 6.31 27.11-1.145 41.665 4.217 56.22 9.58 63.673 25.726 58.312 40.281a28.087 28.087 0 0 1-14.925 15.947l-.796-3.749a1.275 1.275 0 0 0-2.096-.687l-7.674 6.851a1.275 1.275 0 0 0 .462 2.169l9.797 3.127a1.275 1.275 0 0 0 1.638-1.48l-.782-3.678a30.51 30.51 0 0 0 18.657-28.178Zm-30.609-1.275a1.276 1.276 0 1 1 0 2.552 1.276 1.276 0 0 1 0-2.552Zm4.201 29.728 4.368-3.896 1.206 5.68-5.574-1.784Z"/><path fill="#4D5AE5" d="M30.709 6.37v2.55a1.275 1.275 0 1 0 2.55 0V6.37a1.276 1.276 0 0 0-2.55 0ZM7.752 29.327a1.275 1.275 0 0 0 0 2.55h2.55a1.275 1.275 0 1 0 0-2.55h-2.55ZM56.216 31.878a1.275 1.275 0 1 0 0-2.55h-2.55a1.276 1.276 0 0 0 0 2.55h2.55Z"/></g><defs><clipPath id="a"><path fill="#fff" d="M0 0h64v64H0z"/></clipPath></defs></symbol>
<symbol xmlns="http://www.w3.org/2000/svg" width="60" height="64" fill="none"><path fill="#2E2F42" d="M59.546 44.195 42.66 27.185l1.874-9.23c.484.188.998.287 1.517.29h.013a4.318 4.318 0 1 0-4.017-2.87l-9.92 1.21L15.945.32a1.066 1.066 0 0 0-.753-.32c-.28.001-.548.113-.747.31L11.42 3.318a1.067 1.067 0 0 0 0 1.509l1.628 1.65a29.885 29.885 0 0 0 5.04 35.327c.084.081.183.147.291.195a6.192 6.192 0 0 0-.104 1.094v12.374h-12.8A5.34 5.34 0 0 0 .14 60.8v2.133C.141 63.523.62 64 1.208 64h49.067c.589 0 1.067-.478 1.067-1.067V60.8a5.34 5.34 0 0 0-5.334-5.333h-12.8v-5.484c2.005.42 4.048.635 6.097.64a29.699 29.699 0 0 0 14.08-3.567l1.637 1.646c.198.202.469.318.753.32.28-.002.548-.113.746-.31l3.025-3.009a1.067 1.067 0 0 0 0-1.508ZM44.56 12.466a2.133 2.133 0 1 1 1.503 3.646h-.006a2.133 2.133 0 0 1-1.493-3.646h-.004Zm-2.511 7.01-1.197 5.89-2.351-2.364 3.548-3.527Zm-1.212-1.804-3.84 3.817-2.97-2.987 6.81-.83ZM46.008 57.6a3.2 3.2 0 0 1 3.2 3.2v1.067H2.275V60.8a3.2 3.2 0 0 1 3.2-3.2h40.533Zm-14.933-4.267v2.134H20.408v-2.134h10.667ZM20.408 51.2v-8.107c0-2.587 2.393-4.693 5.333-4.693 2.941 0 5.334 2.106 5.334 4.693V51.2H20.408Zm12.8-3.392v-4.715c0-3.764-3.35-6.826-7.466-6.826a7.6 7.6 0 0 0-6.563 3.572 27.739 27.739 0 0 1-4.557-31.774l37.204 37.417a27.642 27.642 0 0 1-18.618 2.326Zm22.578-1.367-1.503-1.512L15.181 5.591 13.672 4.08l1.51-1.504 15.87 15.96c.007 0 .011.013.019.019L57.3 44.937l-1.514 1.504Z"/><path fill="#4D5AE5" d="M25.751 40.533h-.01a3.2 3.2 0 0 0-.01 6.4h.01a3.2 3.2 0 0 0 .01-6.4Zm.747 3.957a1.067 1.067 0 0 1-1.818-.762 1.068 1.068 0 0 1 1.061-1.061 1.067 1.067 0 0 1 .747 1.823h.01Z"/></symbol>
</svg>